<svg width="512" height="512" xmlns="http://www.w3.org/2000/svg">
  <rect width="512" height="512" rx="64" fill="#d2f803"/>
  <g fill="#000000">
    <!-- UP lettermark for app icon -->
    <!-- U -->
    <path d="M80 120 L80 260 C80 320 120 360 190 360 C260 360 300 320 300 260 L300 120 L250 120 L250 260 C250 280 230 300 190 300 C150 300 130 280 130 260 L130 120 Z"/>
    
    <!-- P -->
    <path d="M320 120 L320 390 L370 390 L370 280 L420 280 C480 280 520 240 520 200 C520 160 480 120 420 120 L320 120 Z M370 170 L420 170 C440 170 450 180 450 200 C450 220 440 230 420 230 L370 230 Z"/>
  </g>
</svg>
