<svg width="200" height="60" viewBox="0 0 200 60" xmlns="http://www.w3.org/2000/svg">
  <!-- UPLO logo - designer version with bold, modern letterforms -->
  <g fill="currentColor" font-family="system-ui, -apple-system, sans-serif" font-weight="800">
    <!-- U - Bold, rounded bottom -->
    <path d="M0 8 L0 35 C0 48 8 54 22 54 C36 54 44 48 44 35 L44 8 L32 8 L32 35 C32 40 28 42 22 42 C16 42 12 40 12 35 L12 8 Z" fill="currentColor"/>
    
    <!-- P - Strong vertical stroke with rounded top -->  
    <path d="M54 8 L54 54 L66 54 L66 34 L84 34 C96 34 102 28 102 20 C102 12 96 8 84 8 L54 8 Z M66 18 L84 18 C88 18 90 19 90 22 C90 25 88 26 84 26 L66 26 Z" fill="currentColor"/>
    
    <!-- L - Clean, strong vertical -->
    <path d="M112 8 L112 54 L158 54 L158 44 L124 44 L124 8 Z" fill="currentColor"/>
    
    <!-- O - Perfect circle, consistent stroke -->
    <path d="M168 31 C168 15 176 8 190 8 C204 8 212 15 212 31 C212 47 204 54 190 54 C176 54 168 47 168 31 Z M180 31 C180 40 184 44 190 44 C196 44 200 40 200 31 C200 22 196 18 190 18 C184 18 180 22 180 31 Z" fill="currentColor"/>
  </g>
</svg>