<svg width="400" height="120" viewBox="0 0 400 120" xmlns="http://www.w3.org/2000/svg">
  <!-- Designer's UPLO logo - exact recreation -->
  <g fill="#d2f803">
    <!-- U - Rounded rectangle with curved bottom -->
    <path d="M0 10 L0 80 C0 100 15 115 35 115 C55 115 70 100 70 80 L70 10 L50 10 L50 80 C50 85 45 90 35 90 C25 90 20 85 20 80 L20 10 Z"/>
    
    <!-- P - Vertical bar with rounded top section -->
    <path d="M90 10 L90 115 L110 115 L110 70 L135 70 C155 70 170 55 170 40 C170 25 155 10 135 10 L90 10 Z M110 25 L135 25 C145 25 150 30 150 40 C150 50 145 55 135 55 L110 55 Z"/>
    
    <!-- L - Simple vertical with horizontal base -->
    <path d="M190 10 L190 115 L280 115 L280 95 L210 95 L210 10 Z"/>
    
    <!-- O - Perfect rounded rectangle/oval -->
    <path d="M300 62.5 C300 30 315 10 345 10 C375 10 390 30 390 62.5 C390 95 375 115 345 115 C315 115 300 95 300 62.5 Z M320 62.5 C320 85 330 95 345 95 C360 95 370 85 370 62.5 C370 40 360 30 345 30 C330 30 320 40 320 62.5 Z"/>
  </g>
</svg>