<svg width="1000" height="300" viewBox="0 0 1000 300" xmlns="http://www.w3.org/2000/svg">
  <!-- Exact designer UPLO logo with proper proportions -->
  <g fill="#d2f803">
    <!-- U - Bold with rounded bottom -->
    <path d="M0 30 L0 180 C0 240 40 270 100 270 C160 270 200 240 200 180 L200 30 L130 30 L130 180 C130 200 120 210 100 210 C80 210 70 200 70 180 L70 30 Z"/>
    
    <!-- P - Vertical with rounded top chamber -->
    <path d="M240 30 L240 270 L310 270 L310 180 L380 180 C440 180 470 150 470 120 C470 90 440 60 380 60 L240 60 Z M310 100 L380 100 C400 100 410 110 410 120 C410 130 400 140 380 140 L310 140 Z"/>
    
    <!-- L - Clean vertical with horizontal -->
    <path d="M510 30 L510 270 L750 270 L750 210 L580 210 L580 30 Z"/>
    
    <!-- O - Perfect rounded rectangle -->
    <path d="M790 150 C790 80 830 30 920 30 C1010 30 1050 80 1050 150 C1050 220 1010 270 920 270 C830 270 790 220 790 150 Z M860 150 C860 190 885 210 920 210 C955 210 980 190 980 150 C980 110 955 90 920 90 C885 90 860 110 860 150 Z"/>
  </g>
</svg>