<svg width="120" height="32" viewBox="0 0 120 32" xmlns="http://www.w3.org/2000/svg">
  <!-- UPLO logo - clean modern style based on provided image -->
  <g fill="currentColor">
    <!-- U -->
    <path d="M2 4 L2 20 C2 25 5.5 28 11 28 C16.5 28 20 25 20 20 L20 4 L15 4 L15 20 C15 21.5 13.5 23 11 23 C8.5 23 7 21.5 7 20 L7 4 Z"/>
    
    <!-- P -->
    <path d="M25 4 L25 28 L30 28 L30 19 L37 19 C41.5 19 44 16.5 44 12.5 C44 8.5 41.5 6 37 6 L25 6 Z M30 10 L37 10 C38.5 10 39 11 39 12.5 C39 14 38.5 15 37 15 L30 15 Z"/>
    
    <!-- L -->
    <path d="M49 4 L49 28 L70 28 L70 24 L54 24 L54 4 Z"/>
    
    <!-- O -->
    <path d="M75 16 C75 8.5 79.5 4 86 4 C92.5 4 97 8.5 97 16 C97 23.5 92.5 28 86 28 C79.5 28 75 23.5 75 16 Z M80 16 C80 21 82.5 23.5 86 23.5 C89.5 23.5 92 21 92 16 C92 11 89.5 8.5 86 8.5 C82.5 8.5 80 11 80 16 Z"/>
  </g>
</svg>